<mxfile host="app.diagrams.net" modified="2021-12-14T10:57:52.394Z" agent="5.0 (Windows NT 10.0; Win64; x64) AppleWebKit/537.36 (KHTML, like Gecko) Chrome/96.0.4664.45 Safari/537.36" etag="df01RBznZ0ihvMUq_PPj" version="15.9.6" type="github">
  <diagram id="C5RBs43oDa-KdzZeNtuy" name="Page-1">
    <mxGraphModel dx="1426" dy="802" grid="1" gridSize="10" guides="1" tooltips="1" connect="1" arrows="1" fold="1" page="1" pageScale="1" pageWidth="827" pageHeight="1169" math="0" shadow="0">
      <root>
        <mxCell id="WIyWlLk6GJQsqaUBKTNV-0" />
        <mxCell id="WIyWlLk6GJQsqaUBKTNV-1" parent="WIyWlLk6GJQsqaUBKTNV-0" />
        <mxCell id="WIyWlLk6GJQsqaUBKTNV-2" value="" style="rounded=0;html=1;jettySize=auto;orthogonalLoop=1;fontSize=11;endArrow=block;endFill=0;endSize=8;strokeWidth=1;shadow=0;labelBackgroundColor=none;edgeStyle=orthogonalEdgeStyle;" parent="WIyWlLk6GJQsqaUBKTNV-1" source="WIyWlLk6GJQsqaUBKTNV-3" target="WIyWlLk6GJQsqaUBKTNV-6" edge="1">
          <mxGeometry relative="1" as="geometry" />
        </mxCell>
        <mxCell id="WIyWlLk6GJQsqaUBKTNV-3" value="开卡FT1" style="rounded=1;whiteSpace=wrap;html=1;fontSize=12;glass=0;strokeWidth=1;shadow=0;" parent="WIyWlLk6GJQsqaUBKTNV-1" vertex="1">
          <mxGeometry x="175" y="80" width="90" height="40" as="geometry" />
        </mxCell>
        <mxCell id="WIyWlLk6GJQsqaUBKTNV-4" value="Yes" style="rounded=0;html=1;jettySize=auto;orthogonalLoop=1;fontSize=11;endArrow=block;endFill=0;endSize=8;strokeWidth=1;shadow=0;labelBackgroundColor=none;edgeStyle=orthogonalEdgeStyle;" parent="WIyWlLk6GJQsqaUBKTNV-1" source="WIyWlLk6GJQsqaUBKTNV-6" target="WIyWlLk6GJQsqaUBKTNV-10" edge="1">
          <mxGeometry y="20" relative="1" as="geometry">
            <mxPoint as="offset" />
          </mxGeometry>
        </mxCell>
        <mxCell id="WIyWlLk6GJQsqaUBKTNV-5" value="No" style="edgeStyle=orthogonalEdgeStyle;rounded=0;html=1;jettySize=auto;orthogonalLoop=1;fontSize=11;endArrow=block;endFill=0;endSize=8;strokeWidth=1;shadow=0;labelBackgroundColor=none;" parent="WIyWlLk6GJQsqaUBKTNV-1" source="WIyWlLk6GJQsqaUBKTNV-6" edge="1">
          <mxGeometry y="10" relative="1" as="geometry">
            <mxPoint as="offset" />
            <mxPoint x="320" y="201" as="targetPoint" />
          </mxGeometry>
        </mxCell>
        <mxCell id="WIyWlLk6GJQsqaUBKTNV-6" value="判断是否开过卡" style="rhombus;whiteSpace=wrap;html=1;shadow=0;fontFamily=Helvetica;fontSize=12;align=center;strokeWidth=1;spacing=6;spacingTop=-4;" parent="WIyWlLk6GJQsqaUBKTNV-1" vertex="1">
          <mxGeometry x="165" y="156" width="110" height="90" as="geometry" />
        </mxCell>
        <mxCell id="7yfpHO6uRZt01CoKZOyh-8" value="" style="edgeStyle=orthogonalEdgeStyle;rounded=0;orthogonalLoop=1;jettySize=auto;html=1;" edge="1" parent="WIyWlLk6GJQsqaUBKTNV-1" source="WIyWlLk6GJQsqaUBKTNV-10" target="7yfpHO6uRZt01CoKZOyh-5">
          <mxGeometry relative="1" as="geometry" />
        </mxCell>
        <mxCell id="WIyWlLk6GJQsqaUBKTNV-10" value="参考以往的bad block table" style="rhombus;whiteSpace=wrap;html=1;shadow=0;fontFamily=Helvetica;fontSize=12;align=center;strokeWidth=1;spacing=6;spacingTop=-4;" parent="WIyWlLk6GJQsqaUBKTNV-1" vertex="1">
          <mxGeometry x="160" y="277" width="120" height="100" as="geometry" />
        </mxCell>
        <mxCell id="7yfpHO6uRZt01CoKZOyh-0" value="Erase good flow" style="text;html=1;align=center;verticalAlign=middle;resizable=0;points=[];autosize=1;strokeColor=none;fillColor=none;" vertex="1" parent="WIyWlLk6GJQsqaUBKTNV-1">
          <mxGeometry x="175" y="50" width="100" height="20" as="geometry" />
        </mxCell>
        <mxCell id="7yfpHO6uRZt01CoKZOyh-3" value="" style="edgeStyle=orthogonalEdgeStyle;rounded=0;orthogonalLoop=1;jettySize=auto;html=1;" edge="1" parent="WIyWlLk6GJQsqaUBKTNV-1" source="7yfpHO6uRZt01CoKZOyh-1" target="7yfpHO6uRZt01CoKZOyh-2">
          <mxGeometry relative="1" as="geometry" />
        </mxCell>
        <mxCell id="7yfpHO6uRZt01CoKZOyh-6" value="" style="edgeStyle=orthogonalEdgeStyle;rounded=0;orthogonalLoop=1;jettySize=auto;html=1;" edge="1" parent="WIyWlLk6GJQsqaUBKTNV-1" source="7yfpHO6uRZt01CoKZOyh-1" target="7yfpHO6uRZt01CoKZOyh-5">
          <mxGeometry relative="1" as="geometry" />
        </mxCell>
        <mxCell id="7yfpHO6uRZt01CoKZOyh-7" value="Yes" style="edgeLabel;html=1;align=center;verticalAlign=middle;resizable=0;points=[];" vertex="1" connectable="0" parent="7yfpHO6uRZt01CoKZOyh-6">
          <mxGeometry x="-0.2632" y="-1" relative="1" as="geometry">
            <mxPoint as="offset" />
          </mxGeometry>
        </mxCell>
        <mxCell id="7yfpHO6uRZt01CoKZOyh-1" value="ODT是否有bad table" style="rhombus;whiteSpace=wrap;html=1;shadow=0;fontFamily=Helvetica;fontSize=12;align=center;strokeWidth=1;spacing=6;spacingTop=-4;" vertex="1" parent="WIyWlLk6GJQsqaUBKTNV-1">
          <mxGeometry x="318" y="154" width="140" height="94" as="geometry" />
        </mxCell>
        <mxCell id="7yfpHO6uRZt01CoKZOyh-9" value="Yes" style="edgeStyle=orthogonalEdgeStyle;rounded=0;orthogonalLoop=1;jettySize=auto;html=1;entryX=1;entryY=0.5;entryDx=0;entryDy=0;" edge="1" parent="WIyWlLk6GJQsqaUBKTNV-1" source="7yfpHO6uRZt01CoKZOyh-2" target="7yfpHO6uRZt01CoKZOyh-5">
          <mxGeometry relative="1" as="geometry">
            <Array as="points">
              <mxPoint x="575" y="327" />
            </Array>
          </mxGeometry>
        </mxCell>
        <mxCell id="7yfpHO6uRZt01CoKZOyh-2" value="读取特定位置byte, build orignal bad table" style="whiteSpace=wrap;html=1;shadow=0;strokeWidth=1;spacing=6;spacingTop=-4;" vertex="1" parent="WIyWlLk6GJQsqaUBKTNV-1">
          <mxGeometry x="515" y="171" width="120" height="60" as="geometry" />
        </mxCell>
        <mxCell id="7yfpHO6uRZt01CoKZOyh-4" value="No" style="text;html=1;align=center;verticalAlign=middle;resizable=0;points=[];autosize=1;strokeColor=none;fillColor=none;" vertex="1" parent="WIyWlLk6GJQsqaUBKTNV-1">
          <mxGeometry x="465" y="180" width="30" height="20" as="geometry" />
        </mxCell>
        <mxCell id="7yfpHO6uRZt01CoKZOyh-5" value="开始Build table, download BI ISP&lt;br&gt;完成FT1&amp;nbsp;" style="whiteSpace=wrap;html=1;shadow=0;strokeWidth=1;spacing=6;spacingTop=-4;" vertex="1" parent="WIyWlLk6GJQsqaUBKTNV-1">
          <mxGeometry x="325" y="297" width="120" height="60" as="geometry" />
        </mxCell>
        <mxCell id="7yfpHO6uRZt01CoKZOyh-10" value="" style="rounded=0;html=1;jettySize=auto;orthogonalLoop=1;fontSize=11;endArrow=block;endFill=0;endSize=8;strokeWidth=1;shadow=0;labelBackgroundColor=none;edgeStyle=orthogonalEdgeStyle;" edge="1" parent="WIyWlLk6GJQsqaUBKTNV-1" source="7yfpHO6uRZt01CoKZOyh-11" target="7yfpHO6uRZt01CoKZOyh-14">
          <mxGeometry relative="1" as="geometry" />
        </mxCell>
        <mxCell id="7yfpHO6uRZt01CoKZOyh-11" value="开卡FT1" style="rounded=1;whiteSpace=wrap;html=1;fontSize=12;glass=0;strokeWidth=1;shadow=0;" vertex="1" parent="WIyWlLk6GJQsqaUBKTNV-1">
          <mxGeometry x="175" y="460" width="90" height="40" as="geometry" />
        </mxCell>
        <mxCell id="7yfpHO6uRZt01CoKZOyh-12" value="Yes" style="rounded=0;html=1;jettySize=auto;orthogonalLoop=1;fontSize=11;endArrow=block;endFill=0;endSize=8;strokeWidth=1;shadow=0;labelBackgroundColor=none;edgeStyle=orthogonalEdgeStyle;" edge="1" parent="WIyWlLk6GJQsqaUBKTNV-1" source="7yfpHO6uRZt01CoKZOyh-14" target="7yfpHO6uRZt01CoKZOyh-16">
          <mxGeometry y="20" relative="1" as="geometry">
            <mxPoint as="offset" />
          </mxGeometry>
        </mxCell>
        <mxCell id="7yfpHO6uRZt01CoKZOyh-13" value="No" style="edgeStyle=orthogonalEdgeStyle;rounded=0;html=1;jettySize=auto;orthogonalLoop=1;fontSize=11;endArrow=block;endFill=0;endSize=8;strokeWidth=1;shadow=0;labelBackgroundColor=none;" edge="1" parent="WIyWlLk6GJQsqaUBKTNV-1" source="7yfpHO6uRZt01CoKZOyh-14">
          <mxGeometry y="10" relative="1" as="geometry">
            <mxPoint as="offset" />
            <mxPoint x="320" y="581" as="targetPoint" />
          </mxGeometry>
        </mxCell>
        <mxCell id="7yfpHO6uRZt01CoKZOyh-14" value="判断是否开过卡" style="rhombus;whiteSpace=wrap;html=1;shadow=0;fontFamily=Helvetica;fontSize=12;align=center;strokeWidth=1;spacing=6;spacingTop=-4;" vertex="1" parent="WIyWlLk6GJQsqaUBKTNV-1">
          <mxGeometry x="165" y="536" width="110" height="90" as="geometry" />
        </mxCell>
        <mxCell id="7yfpHO6uRZt01CoKZOyh-15" value="" style="edgeStyle=orthogonalEdgeStyle;rounded=0;orthogonalLoop=1;jettySize=auto;html=1;" edge="1" parent="WIyWlLk6GJQsqaUBKTNV-1" source="7yfpHO6uRZt01CoKZOyh-16" target="7yfpHO6uRZt01CoKZOyh-25">
          <mxGeometry relative="1" as="geometry" />
        </mxCell>
        <mxCell id="7yfpHO6uRZt01CoKZOyh-16" value="参考以往的bad block table" style="rhombus;whiteSpace=wrap;html=1;shadow=0;fontFamily=Helvetica;fontSize=12;align=center;strokeWidth=1;spacing=6;spacingTop=-4;" vertex="1" parent="WIyWlLk6GJQsqaUBKTNV-1">
          <mxGeometry x="160" y="657" width="120" height="100" as="geometry" />
        </mxCell>
        <mxCell id="7yfpHO6uRZt01CoKZOyh-17" value="Erase All flow" style="text;html=1;align=center;verticalAlign=middle;resizable=0;points=[];autosize=1;strokeColor=none;fillColor=none;" vertex="1" parent="WIyWlLk6GJQsqaUBKTNV-1">
          <mxGeometry x="180" y="430" width="90" height="20" as="geometry" />
        </mxCell>
        <mxCell id="7yfpHO6uRZt01CoKZOyh-18" value="" style="edgeStyle=orthogonalEdgeStyle;rounded=0;orthogonalLoop=1;jettySize=auto;html=1;" edge="1" parent="WIyWlLk6GJQsqaUBKTNV-1" source="7yfpHO6uRZt01CoKZOyh-21" target="7yfpHO6uRZt01CoKZOyh-23">
          <mxGeometry relative="1" as="geometry" />
        </mxCell>
        <mxCell id="7yfpHO6uRZt01CoKZOyh-19" value="Erase pass&lt;br&gt;" style="edgeStyle=orthogonalEdgeStyle;rounded=0;orthogonalLoop=1;jettySize=auto;html=1;" edge="1" parent="WIyWlLk6GJQsqaUBKTNV-1" source="7yfpHO6uRZt01CoKZOyh-21" target="7yfpHO6uRZt01CoKZOyh-25">
          <mxGeometry relative="1" as="geometry" />
        </mxCell>
        <mxCell id="7yfpHO6uRZt01CoKZOyh-21" value="erase all block," style="rhombus;whiteSpace=wrap;html=1;shadow=0;fontFamily=Helvetica;fontSize=12;align=center;strokeWidth=1;spacing=6;spacingTop=-4;" vertex="1" parent="WIyWlLk6GJQsqaUBKTNV-1">
          <mxGeometry x="318" y="534" width="140" height="94" as="geometry" />
        </mxCell>
        <mxCell id="7yfpHO6uRZt01CoKZOyh-22" value="Yes" style="edgeStyle=orthogonalEdgeStyle;rounded=0;orthogonalLoop=1;jettySize=auto;html=1;entryX=1;entryY=0.5;entryDx=0;entryDy=0;" edge="1" parent="WIyWlLk6GJQsqaUBKTNV-1" source="7yfpHO6uRZt01CoKZOyh-23" target="7yfpHO6uRZt01CoKZOyh-25">
          <mxGeometry relative="1" as="geometry">
            <Array as="points">
              <mxPoint x="575" y="707" />
            </Array>
          </mxGeometry>
        </mxCell>
        <mxCell id="7yfpHO6uRZt01CoKZOyh-23" value="fail 的mark 为orignal bad" style="whiteSpace=wrap;html=1;shadow=0;strokeWidth=1;spacing=6;spacingTop=-4;fontSize=12;" vertex="1" parent="WIyWlLk6GJQsqaUBKTNV-1">
          <mxGeometry x="515" y="551" width="120" height="60" as="geometry" />
        </mxCell>
        <mxCell id="7yfpHO6uRZt01CoKZOyh-24" value="erase fail" style="text;html=1;align=center;verticalAlign=middle;resizable=0;points=[];autosize=1;strokeColor=none;fillColor=none;" vertex="1" parent="WIyWlLk6GJQsqaUBKTNV-1">
          <mxGeometry x="450" y="560" width="60" height="20" as="geometry" />
        </mxCell>
        <mxCell id="7yfpHO6uRZt01CoKZOyh-25" value="开始Build table, download BI ISP&lt;br&gt;完成FT1&amp;nbsp;" style="whiteSpace=wrap;html=1;shadow=0;strokeWidth=1;spacing=6;spacingTop=-4;" vertex="1" parent="WIyWlLk6GJQsqaUBKTNV-1">
          <mxGeometry x="325" y="677" width="120" height="60" as="geometry" />
        </mxCell>
      </root>
    </mxGraphModel>
  </diagram>
</mxfile>
